<svg width="141" height="40" viewBox="0 0 141 40" fill="none" xmlns="http://www.w3.org/2000/svg">
<path fill-rule="evenodd" clip-rule="evenodd" d="M101.271 29.8914C102.965 30.6305 104.95 31 107.225 31C109.501 31 111.473 30.6305 113.142 29.8914C114.835 29.1524 116.137 28.0566 117.048 26.604C117.983 25.1514 118.451 23.3675 118.451 21.2523V6H112.345V20.6789C112.345 22.3863 111.903 23.6606 111.018 24.5015C110.133 25.3425 108.869 25.763 107.225 25.763C105.582 25.763 104.318 25.3425 103.433 24.5015C102.548 23.6606 102.106 22.3863 102.106 20.6789V6H96V21.2523C96 23.3675 96.4551 25.1514 97.3653 26.604C98.3007 28.0566 99.6027 29.1524 101.271 29.8914ZM120.407 6V23.393H126.513H132.278C134.073 23.393 135.615 23.0362 136.904 22.3226C138.219 21.5836 139.23 20.5642 139.938 19.2645C140.646 17.9648 141 16.474 141 14.792C141 13.1356 140.684 11.6448 140.052 10.3196C139.445 8.9944 138.51 7.94954 137.246 7.18502C135.981 6.395 134.376 6 132.429 6H120.407ZM130.912 18.6529H126.513V10.7401H131.102C132.366 10.7401 133.289 11.0968 133.87 11.8104C134.477 12.4985 134.781 13.4796 134.781 14.7538C134.781 15.9261 134.452 16.869 133.794 17.5826C133.162 18.2961 132.202 18.6529 130.912 18.6529ZM126.512 25.89H120.406V32H126.512V25.89Z" fill="#373737"/>
<path fill-rule="evenodd" clip-rule="evenodd" d="M76.9525 1.42517H70.876V7.50517H76.9525V1.42517ZM48 34V10H60.8419C63.2843 10 65.1225 10.5714 66.3563 11.7143C67.6153 12.8571 68.2448 14.472 68.2448 16.559C68.2448 17.8261 67.993 18.8944 67.4894 19.764C67.011 20.6087 66.3689 21.2671 65.5631 21.7391C66.6711 22.1366 67.5398 22.7205 68.1693 23.4907C68.7988 24.2609 69.1135 25.4161 69.1135 26.9565C69.1135 29.2422 68.4337 30.9938 67.0739 32.2112C65.7142 33.4037 63.7627 34 61.2196 34H48ZM54.081 19.764H59.0289C60.0865 19.764 60.8544 19.5279 61.3329 19.0559C61.8113 18.5839 62.0505 17.9255 62.0505 17.0807C62.0505 16.1615 61.8113 15.4783 61.3329 15.0311C60.8544 14.559 59.9857 14.323 58.7267 14.323H54.081V19.764ZM54.081 29.7143H59.6332C60.7411 29.7143 61.5595 29.4907 62.0883 29.0435C62.6422 28.5963 62.9192 27.8012 62.9192 26.6584C62.9192 25.7391 62.6548 25.0559 62.126 24.6087C61.5973 24.1366 60.6908 23.9006 59.4066 23.9006H54.081V29.7143ZM70.8746 34V10H76.6419H76.9556H97V14.6211H89.8614V34H83.7804V14.6211H76.9556V34H70.8746Z" fill="#373737"/>
<g clip-path="url(#clip0_652_2926)">
<path d="M20 40C31.0457 40 40 31.0457 40 20C40 8.95431 31.0457 0 20 0C8.95431 0 0 8.95431 0 20C0 31.0457 8.95431 40 20 40Z" fill="#F7B40D"/>
<path opacity="0.49" d="M40.1475 22.576L24.3515 7.72693H13.7423V13.4837L17.508 17.2494V33.1301L25.4722 39.7377C30.3189 38.1616 32.7731 36.3962 35.6774 33.1301C38.5816 29.864 39.6271 25.7087 40.1475 22.576Z" fill="url(#paint0_linear_652_2926)"/>
<path d="M24.3515 7.72693V33.1297H17.508V13.4836H13.7423V7.72693H24.3515Z" fill="white"/>
</g>
<defs>
<linearGradient id="paint0_linear_652_2926" x1="10.9853" y1="10.4839" x2="37.9947" y2="37.4933" gradientUnits="userSpaceOnUse">
<stop/>
<stop offset="1" stop-opacity="0"/>
</linearGradient>
<clipPath id="clip0_652_2926">
<rect width="40" height="40" rx="20" fill="white"/>
</clipPath>
</defs>
</svg>
