<svg width="109" height="31" viewBox="0 0 109 31" fill="none" xmlns="http://www.w3.org/2000/svg">
<path fill-rule="evenodd" clip-rule="evenodd" d="M77.7116 22.9373C79.0114 23.5044 80.5344 23.788 82.2804 23.788C84.0265 23.788 85.5397 23.5044 86.8202 22.9373C88.12 22.3702 89.1192 21.5293 89.8176 20.4146C90.5354 19.3 90.8943 17.9311 90.8943 16.308V4.604H86.2091V15.868C86.2091 17.1782 85.8695 18.156 85.1905 18.8013C84.5115 19.4466 83.5415 19.7693 82.2804 19.7693C81.0194 19.7693 80.0493 19.4466 79.3703 18.8013C78.6913 18.156 78.3518 17.1782 78.3518 15.868V4.604H73.6665V16.308C73.6665 17.9311 74.0157 19.3 74.7141 20.4146C75.432 21.5293 76.4311 22.3702 77.7116 22.9373ZM92.3958 4.604V17.9506H97.081H101.504C102.882 17.9506 104.065 17.6769 105.055 17.1293C106.064 16.5622 106.84 15.78 107.383 14.7826C107.926 13.7853 108.198 12.6413 108.198 11.3507C108.198 10.0795 107.955 8.93555 107.47 7.91866C107.004 6.90178 106.287 6.1 105.317 5.51334C104.347 4.90711 103.115 4.604 101.621 4.604H92.3958ZM100.457 14.3133H97.081V8.24133H100.602C101.572 8.24133 102.28 8.51511 102.727 9.06266C103.192 9.59066 103.425 10.3435 103.425 11.3213C103.425 12.2209 103.173 12.9444 102.668 13.492C102.183 14.0395 101.446 14.3133 100.457 14.3133ZM97.0799 19.8667H92.3948V24.5553H97.0799V19.8667Z" fill="white"/>
<path fill-rule="evenodd" clip-rule="evenodd" d="M59.0502 1.09375H54.3874V5.75929H59.0502V1.09375ZM36.8333 26.0904V7.67383H46.6876C48.5618 7.67383 49.9723 8.11232 50.9191 8.9893C51.8852 9.86628 52.3683 11.1055 52.3683 12.7069C52.3683 13.6792 52.1751 14.499 51.7886 15.1663C51.4215 15.8145 50.9288 16.3197 50.3105 16.6819C51.1606 16.987 51.8273 17.435 52.3103 18.026C52.7934 18.617 53.0349 19.5035 53.0349 20.6856C53.0349 22.4395 52.5132 23.7836 51.4698 24.7178C50.4264 25.6329 48.9289 26.0904 46.9774 26.0904H36.8333ZM41.4996 15.1663H45.2964C46.1079 15.1663 46.6972 14.9852 47.0643 14.6229C47.4315 14.2607 47.615 13.7555 47.615 13.1073C47.615 12.4019 47.4315 11.8776 47.0643 11.5345C46.6972 11.1722 46.0306 10.9911 45.0645 10.9911H41.4996V15.1663ZM41.4996 22.8018H45.7601C46.6103 22.8018 47.2382 22.6302 47.644 22.287C48.0691 21.9438 48.2816 21.3338 48.2816 20.4568C48.2816 19.7514 48.0788 19.2271 47.673 18.8839C47.2672 18.5217 46.5716 18.3406 45.5862 18.3406H41.4996V22.8018ZM54.3862 26.0904V7.67383H58.8118H59.0525H74.4338V11.2199H68.956V26.0904H64.2897V11.2199H59.0525V26.0904H54.3862Z" fill="white"/>
<g clip-path="url(#clip0_48_461)">
<path d="M15.5 31C24.0604 31 31 24.0604 31 15.5C31 6.93959 24.0604 0 15.5 0C6.93959 0 0 6.93959 0 15.5C0 24.0604 6.93959 31 15.5 31Z" fill="#F7B40D"/>
<path opacity="0.49" d="M31.1144 17.4963L18.8725 5.98828H10.6504V10.4498L13.5688 13.3682V25.6757L19.7411 30.7966C23.4972 29.5751 25.3993 28.207 27.6501 25.6757C29.9009 23.1445 30.7111 19.9241 31.1144 17.4963Z" fill="url(#paint0_linear_48_461)"/>
<path d="M18.8725 5.98828V25.6754H13.5688V10.4497H10.6504V5.98828H18.8725Z" fill="white"/>
</g>
<defs>
<linearGradient id="paint0_linear_48_461" x1="8.51375" y1="8.12493" x2="29.446" y2="29.0572" gradientUnits="userSpaceOnUse">
<stop/>
<stop offset="1" stop-opacity="0"/>
</linearGradient>
<clipPath id="clip0_48_461">
<rect width="31" height="31" rx="15.5" fill="white"/>
</clipPath>
</defs>
</svg>
