<svg width="18" height="18" viewBox="0 0 18 18" fill="none" xmlns="http://www.w3.org/2000/svg">
<g clip-path="url(#clip0_1398_3553)">
<path d="M11.1684 8.22206L10.4268 8.11361C10.0679 8.06139 9.76092 7.83646 9.60143 7.51111L9.27049 6.83632C9.19473 6.68368 9.05917 6.66762 9.00335 6.66762C8.94753 6.66762 8.80798 6.68368 8.73621 6.83632L8.40527 7.51111C8.24578 7.83646 7.93877 8.06139 7.57992 8.11361L6.8383 8.22206C6.67083 8.24616 6.61501 8.37469 6.59906 8.4269C6.58311 8.47912 6.5552 8.61569 6.67482 8.73619L7.20911 9.26236C7.46827 9.51541 7.5839 9.88093 7.5241 10.2384L7.3965 10.9815C7.36859 11.1462 7.46827 11.2426 7.51612 11.2747C7.55998 11.3068 7.68358 11.3751 7.83111 11.2988L8.49299 10.9494C8.65247 10.865 8.82791 10.8208 9.00335 10.8208C9.17879 10.8208 9.35422 10.861 9.51371 10.9494L10.1756 11.2988C10.3231 11.3791 10.4467 11.3108 10.4906 11.2747C10.5344 11.2426 10.6381 11.1462 10.6102 10.9815L10.4826 10.2384C10.4228 9.88093 10.5384 9.51541 10.7976 9.26236L11.3319 8.73619C11.4515 8.6197 11.4236 8.48314 11.4076 8.4269C11.3917 8.37469 11.3319 8.24616 11.1684 8.22206Z" fill="#815AAC"/>
<path d="M12.8631 17.0426C13.3096 16.5244 13.8918 16.1469 14.5457 15.9541C15.5784 15.6488 16.3439 14.7571 16.4954 13.6847C16.5911 13.0059 16.8782 12.3712 17.3288 11.8491C18.0345 11.0297 18.198 9.86486 17.7514 8.87677C17.4683 8.25017 17.3686 7.56333 17.4683 6.8805C17.6198 5.80806 17.1374 4.73561 16.2323 4.14919C15.6581 3.77564 15.2036 3.24946 14.9205 2.62688C14.4739 1.6428 13.4891 1.00416 12.4125 1.00416C11.7307 1.00416 11.0649 0.807344 10.4907 0.437813C10.0401 0.144599 9.5218 0 9.00346 0C8.48513 0 7.96679 0.144599 7.51225 0.437813C6.93809 0.811361 6.27223 1.00416 5.59042 1.00416C4.51387 1.00416 3.52903 1.6428 3.08246 2.62688C2.79937 3.25348 2.34483 3.77966 1.77067 4.14919C0.865576 4.73561 0.379137 5.80806 0.534638 6.8805C0.630331 7.55931 0.534638 8.25017 0.247559 8.87677C-0.199008 9.86084 -0.0315452 11.0297 0.670203 11.8491C1.11677 12.3672 1.40385 13.0019 1.50353 13.6847C1.65504 14.7571 2.42059 15.6488 3.45327 15.9541C4.10717 16.1469 4.68931 16.5244 5.13587 17.0426C5.84161 17.862 6.96202 18.1913 7.9947 17.8861C8.6486 17.6933 9.34238 17.6933 9.99628 17.8861C11.0369 18.1954 12.1573 17.862 12.8631 17.0426ZM9.00346 14.251C6.12869 14.251 3.79219 11.8973 3.79219 9.00128C3.79219 6.10529 6.12869 3.75154 9.00346 3.75154C11.8782 3.75154 14.2147 6.10529 14.2147 9.00128C14.2147 11.8973 11.8782 14.251 9.00346 14.251Z" fill="#815AAC"/>
</g>
<defs>
<clipPath id="clip0_1398_3553">
<rect width="18" height="18" fill="white"/>
</clipPath>
</defs>
</svg>
